<svg viewBox="0 0 396.821 396.821" xmlns="http://www.w3.org/2000/svg" xmlns:xlink="http://www.w3.org/1999/xlink" id="Layer_1" overflow="hidden"><g><g><g><path d="M394.583 8.054C394.161 4.641 391.473 1.953 388.061 1.531 357.313-2.272 325.584 1.043 296.294 11.114 267.001 21.186 239.939 38.087 218.036 59.99L168.053 109.973 95.904 119.278C94.259 119.49 92.732 120.241 91.559 121.413L21.996 190.976C20.027 192.945 19.311 195.844 20.138 198.504 20.963 201.164 23.196 203.147 25.934 203.654L78.531 213.396 88.866 223.731 66.863 235.646C64.781 236.773 63.353 238.818 63.012 241.161 62.671 243.504 63.456 245.87 65.13 247.544L148.568 330.982C149.985 332.399 151.897 333.179 153.872 333.179 154.23 333.179 154.592 333.153 154.952 333.101 157.295 332.76 159.34 331.332 160.467 329.25L172.383 307.247 182.718 317.582 192.46 370.179C192.968 372.918 194.95 375.15 197.61 375.976 198.341 376.203 199.09 376.313 199.834 376.313 201.794 376.313 203.71 375.544 205.139 374.116L274.702 304.553C275.874 303.381 276.625 301.853 276.837 300.209L286.143 228.059 336.126 178.075C358.029 156.172 374.93 129.111 385.002 99.818 395.072 70.528 398.385 38.795 394.583 8.054ZM79.674 198.355 42.685 191.504 100.358 133.829 150.69 127.338 79.674 198.355ZM152.065 313.268 82.846 244.05 99.931 234.798 161.316 296.184 152.065 313.268ZM262.285 295.756 204.611 353.43 197.759 316.442 268.776 245.425 262.285 295.756ZM325.517 167.471 189.667 303.321 92.793 206.447 228.643 70.596C248.381 50.857 272.645 35.52 298.93 26.106 302.325 43.598 310.878 59.825 323.584 72.53 336.289 85.236 352.515 93.789 370.008 97.185 360.593 123.468 345.255 147.732 325.517 167.471ZM374.523 82.774C359.32 80.181 345.178 72.911 334.19 61.924 323.202 50.937 315.933 36.794 313.34 21.591 335.081 15.732 357.919 13.734 380.33 15.784 382.381 38.195 380.382 61.033 374.523 82.774Z" fill="#00A69B"/><path d="M221.325 110.443C203.585 128.184 203.585 157.049 221.325 174.79 230.196 183.661 241.846 188.095 253.499 188.095 265.148 188.095 276.803 183.659 285.672 174.79L285.673 174.79C303.413 157.05 303.413 128.184 285.672 110.443 267.931 92.703 239.065 92.704 221.325 110.443ZM275.066 164.183C263.172 176.076 243.822 176.074 231.932 164.183 220.039 152.291 220.039 132.941 231.932 121.049 237.877 115.103 245.688 112.131 253.498 112.131 261.309 112.131 269.119 115.104 275.064 121.049 286.957 132.941 286.957 152.291 275.066 164.183Z" fill="#00A69B"/><path d="M98.365 299.165C95.435 296.236 90.687 296.236 87.758 299.165L23.41 363.512C20.481 366.441 20.481 371.19 23.41 374.118 24.875 375.582 26.795 376.315 28.714 376.315 30.633 376.315 32.553 375.583 34.018 374.118L98.365 309.771C101.293 306.843 101.293 302.094 98.365 299.165Z" fill="#00A69B"/><path d="M108.263 319.671 79.272 348.662C76.343 351.591 76.343 356.34 79.272 359.268 80.737 360.732 82.657 361.465 84.576 361.465 86.495 361.465 88.415 360.733 89.88 359.268L118.871 330.277C121.8 327.348 121.8 322.599 118.871 319.671 115.941 316.742 111.193 316.742 108.263 319.671Z" fill="#00A69B"/><path d="M69.123 361.919C65.985 361.919 63.121 363.943 62.061 366.892 60.983 369.89 61.986 373.333 64.477 375.308 67.024 377.328 70.743 377.438 73.405 375.573 76.245 373.583 77.397 369.763 76.044 366.549 74.931 363.774 72.099 361.919 69.123 361.919Z" fill="#00A69B"/><path d="M76.044 366.549C76.234 367 75.864 366.099 76.044 366.549L76.044 366.549Z" fill="#00A69B"/><path d="M47.91 380.025 43.918 384.017C40.988 386.946 40.988 391.695 43.917 394.624 45.382 396.088 47.301 396.821 49.221 396.821 51.14 396.821 53.06 396.089 54.524 394.625L58.516 390.633C61.446 387.704 61.446 382.955 58.517 380.027 55.588 377.099 50.838 377.096 47.91 380.025Z" fill="#00A69B"/><path d="M42.502 314.014C39.572 311.085 34.824 311.085 31.895 314.014L2.904 343.005C-0.025 345.934-0.025 350.683 2.904 353.611 4.369 355.075 6.289 355.808 8.208 355.808 10.127 355.808 12.047 355.076 13.512 353.611L42.503 324.62C45.431 321.692 45.431 316.943 42.502 314.014Z" fill="#00A69B"/><path d="M54.472 311.136C57.515 310.371 59.799 307.719 60.116 304.599 60.427 301.544 58.747 298.55 56.02 297.172 53.125 295.708 49.497 296.319 47.251 298.666 44.846 301.179 44.499 305.092 46.399 308.001 46.339 307.911 46.293 307.845 46.414 308.03 46.54 308.215 46.497 308.148 46.437 308.059 48.204 310.626 51.429 311.901 54.472 311.136Z" fill="#00A69B"/><path d="M73.867 293.257 77.858 289.265C80.787 286.336 80.787 281.587 77.857 278.659 74.925 275.729 70.176 275.73 67.251 278.66L63.26 282.652C60.331 285.581 60.331 290.33 63.261 293.258 64.726 294.722 66.645 295.454 68.564 295.454 70.483 295.454 72.403 294.722 73.867 293.257Z" fill="#00A69B"/></g></g></g><g></g><g></g><g></g><g></g><g></g><g></g><g></g><g></g><g></g><g></g><g></g><g></g><g></g><g></g><g></g></svg>